<?xml version="1.0" encoding="utf-8"?>
<!-- Generator: Adobe Illustrator 23.0.4, SVG Export Plug-In . SVG Version: 6.00 Build 0)  -->
<svg version="1.1" id="Layer_1" xmlns="http://www.w3.org/2000/svg" xmlns:xlink="http://www.w3.org/1999/xlink" x="0px" y="0px"
	 width="1481px" height="787px" viewBox="0 0 1481 787" style="enable-background:new 0 0 1481 787;" xml:space="preserve">
<style type="text/css">
	.st0{fill:#38B593;}
</style>
<g>
	<g>
		<g>
			<path class="st0" d="M725.6,787c-115.7,0-209.8-94.1-209.8-209.8c0-19.6,4.7-39.2,13.5-56.7l2-3.7l108-186.5l139.4-225.6
				C816.4,39.8,885.5,0,962.6,0s146.2,39.8,184.9,106.5l323.4,557c20.5,35.4,8.5,80.7-26.8,101.2c-35.4,20.4-80.7,8.5-101.2-26.8
				l-323.4-557c-17.2-29.6-45.5-32.7-56.8-32.7s-39.7,3.2-56.8,32.7l-90.8,147l-48.5,78.5l-41.6,71.8l-60.7,104.8
				c2.9,31.4,29.3,56,61.4,56c40.9,0,74,33.1,74,74S766.5,787,725.6,787z"/>
		</g>
	</g>
	<g>
		<path class="st0" d="M912.1,520.5l-76.7-152.2l-48.7,78.8l-41.4,71.5l32,63.5c-2.5,31.8-29.1,56.8-61.5,56.8
			c-40.9,0-74,33.1-74,74s33.2,74,74,74c115.7,0,209.8-94.1,209.8-209.8C925.6,557.6,920.9,538,912.1,520.5z"/>
		<path class="st0" d="M815,327.8L705.3,110.3l-2.1-3.8C664.6,39.8,595.4,0,518.3,0S372.1,39.8,333.4,106.4L10,663.4
			c-20.5,35.4-8.5,80.7,26.9,101.2c35.4,20.6,80.7,8.5,101.2-26.8l323.4-557c17.1-29.5,45.5-32.7,56.8-32.7
			c11.2,0,38.7,3.1,55.9,31.1l150.6,298.9l41.5-71.7L815,327.8z"/>
	</g>
</g>
</svg>
