<?xml version="1.0" encoding="utf-8"?>
<!-- Generator: Adobe Illustrator 23.0.4, SVG Export Plug-In . SVG Version: 6.00 Build 0)  -->
<svg version="1.1" id="Layer_1" xmlns="http://www.w3.org/2000/svg" xmlns:xlink="http://www.w3.org/1999/xlink" x="0px" y="0px"
	 width="1480.98px" height="787px" viewBox="0 0 1480.98 787" enable-background="new 0 0 1480.98 787" xml:space="preserve">
<g>
	<g>
		<g>
			<path fill="#FFFFFF" d="M725.62,787c-115.69,0-209.8-94.13-209.8-209.8c0-19.62,4.68-39.24,13.51-56.74l2.02-3.74L639.4,330.27
				l139.37-225.57C816.42,39.8,885.55,0,962.63,0s146.22,39.8,184.93,106.47l323.39,556.95c20.54,35.38,8.52,80.7-26.85,101.24
				c-35.4,20.44-80.7,8.46-101.21-26.85l-323.41-556.97c-17.15-29.55-45.47-32.73-56.85-32.73c-11.38,0-39.7,3.18-56.84,32.71
				l-90.82,146.98l-48.53,78.54l-41.56,71.75l-60.71,104.81c2.87,31.36,29.33,56.02,61.44,56.02c40.89,0,74.05,33.14,74.05,74.05
				S766.51,787,725.62,787z"/>
		</g>
	</g>
	<g>
		<path fill="#FFFFFF" d="M912.12,520.5l-76.73-152.22l-48.65,78.79l-41.43,71.52l32.01,63.5c-2.51,31.75-29.13,56.81-61.51,56.81
			c-40.89,0-74.05,33.14-74.05,74.05S674.92,787,715.81,787c115.69,0,209.8-94.13,209.8-209.8
			C925.61,557.58,920.93,537.96,912.12,520.5z"/>
		<path fill="#FFFFFF" d="M814.98,327.79L705.35,110.3l-2.07-3.83C664.56,39.8,595.43,0,518.35,0S372.13,39.8,333.43,106.44
			L10.03,663.42c-20.54,35.38-8.52,80.7,26.85,101.24c35.4,20.56,80.7,8.48,101.21-26.85l323.42-557
			c17.14-29.53,45.46-32.71,56.84-32.71c11.17,0,38.69,3.06,55.91,31.14L724.9,478.1l41.52-71.67L814.98,327.79z"/>
	</g>
</g>
</svg>
